<?xml version="1.0" encoding="UTF-8"?>
<svg id="_图层_6" data-name="图层 6" xmlns="http://www.w3.org/2000/svg" viewBox="0 3 136 95">
  <defs>
    <style>
      .cls-1 {
        font-family: AdobeSongStd-Light-GBpc-EUC-H, 'Adobe Song Std';
        font-size: 3px;
        font-weight: 300;
      }

      .cls-polygon {
        fill: #000;
      }
      .cls-text {
        fill: #000;
      }
      @media (prefers-color-scheme: dark) {
        .cls-polygon {
          fill: #fff;
        }
        .cls-text {
          fill: #fff;
        }
      }

      .cls-2 {
        stroke-dasharray: .99 .99;
      }

      .cls-2, .cls-3, .cls-4, .cls-5 {
        stroke: #000;
        stroke-miterlimit: 10;
      }
      @media (prefers-color-scheme: dark) {
        .cls-2, .cls-3, .cls-4, .cls-5 {
          stroke: #fff;
          stroke-miterlimit: 10;
        }
      }

      .cls-2, .cls-3, .cls-5 {
        fill: none;
        stroke-width: .25px;
      }

      .cls-4 {
        stroke-width: .5px;
      }

      .cls-6 {
        font-family: TimesNewRomanPSMT, 'Times New Roman';
        font-size: 8px;
      }

      .cls-5 {
        stroke-dasharray: .98 .98;
      }
    </style>
  </defs>
  <circle class="cls-4" cx="67.97" cy="78.9" r=".15"/>
  <g>
    <line class="cls-3" x1="68.12" y1="78.9" x2="99.26" y2="78.9"/>
    <polygon class="cls-polygon" points="98.76 79.63 101.47 78.9 98.76 78.18 98.76 79.63"/>
  </g>
  <g>
    <line class="cls-3" x1="67.97" y1="78.88" x2="67.97" y2="6.12"/>
    <polygon class="cls-polygon" points="68.7 6.61 67.97 3.9 67.25 6.61 68.7 6.61"/>
  </g>
  <g>
    <line class="cls-3" x1="68.22" y1="78.57" x2="100.61" y2="23.15"/>
    <polygon class="cls-polygon" points="100.98 23.94 101.72 21.23 99.73 23.21 100.98 23.94"/>
  </g>
  <g>
    <line class="cls-3" x1="101.47" y1="78.9" x2="101.47" y2="78.4"/>
    <line class="cls-2" x1="101.47" y1="77.41" x2="101.47" y2="22.45"/>
    <line class="cls-3" x1="101.47" y1="21.95" x2="101.47" y2="21.45"/>
  </g>
  <text class="cls-6 cls-text" transform="translate(70.54 6.65)"><tspan x="0" y="0">u</tspan></text>
  <g>
    <path class="cls-3" d="M70.13,13.14c1.15-.02,2.32-1.77,2.3-2.45-.09-3.51-9.26-3.49-9.2,0,0,.39.25,1.52,1.29,2.1"/>
    <path class="cls-polygon" d="M65.99,13.14c-.75.07-1.72.27-2.37.58l.73-1.03-.1-1.26c.4.6,1.13,1.27,1.75,1.71Z"/>
  </g>
  <text class="cls-6 cls-text" transform="translate(105.02 21.28) scale(1.01 1)"><tspan x="0" y="0">v</tspan></text>
  <text transform="translate(105.28 80.77) scale(1.01 1)"><tspan><tspan class="cls-6 cls-text" x="0" y="0">v</tspan><tspan class="cls-1 cls-text" x="4" y="0">⊥</tspan></tspan></text>
  <polygon class="cls-3" points="102.63 96.65 .29 96.65 33.32 61.15 135.66 61.15 102.63 96.65"/>
  <g>
    <line class="cls-3" x1="68.15" y1="21.38" x2="68.65" y2="21.38"/>
    <line class="cls-5" x1="69.63" y1="21.38" x2="100.51" y2="21.38"/>
    <line class="cls-3" x1="101" y1="21.38" x2="101.5" y2="21.38"/>
  </g>
  <g>
    <line class="cls-3" x1="67.97" y1="78.19" x2="67.97" y2="23.43"/>
    <polygon class="cls-polygon" points="68.7 23.93 67.97 21.22 67.25 23.93 68.7 23.93"/>
  </g>
  <text transform="translate(58.85 22.37) scale(1.01 1)"><tspan><tspan class="cls-6 cls-text" x="0" y="0">v</tspan><tspan class="cls-1 cls-text" x="4" y="0">∥</tspan></tspan></text>
</svg>