<?xml version="1.0" encoding="UTF-8"?>
<svg id="_图层_4" data-name="图层 4" xmlns="http://www.w3.org/2000/svg" viewBox="17 2 168.02 92">
  <defs>
    <style>
      .cls-1 {
        font-family: TimesNewRomanPSMT, 'Times New Roman';
        font-size: 6px;
      }

      .cls-polygon {
        fill: #000;
      }
      .cls-text {
        fill: #000;
      }
      @media (prefers-color-scheme: dark) {
        .cls-polygon {
          fill: #fff;
        }
        .cls-text {
          fill: #fff;
        }
      }

      .cls-2 {
        letter-spacing: -.07em;
      }

      .cls-3 {
        stroke-dasharray: .99 .99;
      }

      .cls-3, .cls-4, .cls-5, .cls-6, .cls-7, .cls-8 {
        stroke: #000;
        stroke-miterlimit: 10;
      }

      @media (prefers-color-scheme: dark) {
        .cls-3, .cls-4, .cls-5, .cls-6, .cls-7, .cls-8 {
          stroke: #fff;
          stroke-miterlimit: 10;
        }
      }

      .cls-3, .cls-4, .cls-5, .cls-7, .cls-8 {
        fill: none;
        stroke-width: .25px;
      }

      .cls-9 {
        font-family: AdobeSongStd-Light-GBpc-EUC-H, 'Adobe Song Std';
        font-size: 2px;
        font-weight: 300;
      }

      .cls-5 {
        stroke-dasharray: 1 1;
      }

      .cls-6 {
        stroke-width: .5px;
      }

      .cls-7 {
        stroke-dasharray: .99 .99;
      }

      .cls-8 {
        stroke-dasharray: 1 1;
      }
    </style>
  </defs>
  <ellipse class="cls-4" cx="51.52" cy="77.24" rx="33.5" ry="14.5"/>
  <circle class="cls-6" cx="51.52" cy="77.24" r=".15"/>
  <g>
    <line class="cls-4" x1="51.67" y1="77.24" x2="83.24" y2="77.24"/>
    <polygon class="cls-polygon" points="82.85 77.82 85.02 77.24 82.85 76.66 82.85 77.82"/>
  </g>
  <g>
    <line x1="51.55" y1="77.3" x2="60.88" y2="51.19"/>
    <g>
      <line class="cls-4" x1="51.55" y1="77.3" x2="60.28" y2="52.86"/>
      <polygon class="cls-polygon" points="60.7 53.43 60.88 51.19 59.6 53.03 60.7 53.43"/>
    </g>
  </g>
  <g>
    <line class="cls-4" x1="51.52" y1="77.22" x2="51.52" y2="4.01"/>
    <polygon class="cls-polygon" points="52.1 4.41 51.52 2.24 50.93 4.41 52.1 4.41"/>
  </g>
  <g>
    <line x1="51.55" y1="77.19" x2="67.86" y2="64.7"/>
    <g>
      <line class="cls-4" x1="51.55" y1="77.19" x2="66.46" y2="65.77"/>
      <polygon class="cls-polygon" points="66.5 66.48 67.86 64.7 65.79 65.55 66.5 66.48"/>
    </g>
  </g>
  <g>
    <line x1="68.08" y1="7.38" x2="51.53" y2="77.31"/>
    <g>
      <line class="cls-4" x1="67.67" y1="9.1" x2="51.53" y2="77.31"/>
      <polygon class="cls-polygon" points="67.02 9.35 68.08 7.38 68.15 9.62 67.02 9.35"/>
    </g>
  </g>
  <g>
    <line class="cls-4" x1="67.92" y1="64.7" x2="67.92" y2="64.2"/>
    <line class="cls-7" x1="67.92" y1="63.21" x2="67.92" y2="10.24"/>
    <line class="cls-4" x1="67.92" y1="9.74" x2="67.92" y2="9.24"/>
  </g>
  <g>
    <line class="cls-4" x1="51.77" y1="76.91" x2="84.37" y2="21.1"/>
    <polygon class="cls-polygon" points="84.67 21.74 85.27 19.57 83.67 21.15 84.67 21.74"/>
  </g>
  <g>
    <line class="cls-4" x1="85.02" y1="77.24" x2="85.02" y2="76.74"/>
    <line class="cls-3" x1="85.02" y1="75.75" x2="85.02" y2="20.78"/>
    <line class="cls-4" x1="85.02" y1="20.29" x2="85.02" y2="19.79"/>
  </g>
  <text class="cls-1 cls-text" transform="translate(54.08 4.99)"><tspan x="0" y="0">u</tspan></text>
  <g>
    <path class="cls-4" d="M53.67,11.48c1.15-.02,2.32-1.77,2.3-2.45-.09-3.51-9.26-3.49-9.2,0,0,.43.29,1.72,1.57,2.23"/>
    <path class="cls-polygon" d="M49.53,11.48c-.6.09-1.36.3-1.87.59l.53-.86-.14-1c.35.46.97.96,1.48,1.28Z"/>
  </g>
  <text class="cls-1 cls-text" transform="translate(69.08 6.6)"><tspan x="0" y="0">v</tspan><tspan class="cls-2 cls-text" x="3" y="0">’</tspan></text>
  <text class="cls-1 cls-text" transform="translate(85.56 18.62) scale(1.01 1)"><tspan x="0" y="0">v</tspan></text>
  <text transform="translate(85.82 78.11) scale(1.01 1)"><tspan><tspan class="cls-1 cls-text" x="0" y="0">v</tspan><tspan class="cls-9 cls-text" x="3" y="0">⊥</tspan></tspan></text>
  <text transform="translate(68.77 64.11) scale(1.01 1)"><tspan><tspan class="cls-1 cls-text" x="0" y="0">v’</tspan><tspan class="cls-9 cls-text" x="5" y="0">⊥</tspan></tspan></text>
  <text class="cls-1 cls-text" transform="translate(61.26 51.17)"><tspan x="0" y="0">w</tspan></text>
  <circle class="cls-4" cx="143.52" cy="57.24" r="35"/>
  <circle class="cls-6" cx="143.02" cy="58.74" r=".15"/>
  <g>
    <line x1="60.81" y1="51.22" x2="148.3" y2="18.03"/>
    <g>
      <line class="cls-4" x1="60.81" y1="51.22" x2="61.27" y2="51.05"/>
      <line class="cls-8" x1="62.2" y1="50.69" x2="147.37" y2="18.39"/>
      <line class="cls-4" x1="147.83" y1="18.21" x2="148.3" y2="18.03"/>
    </g>
  </g>
  <g>
    <line x1="84.46" y1="77.11" x2="148.3" y2="95.01"/>
    <g>
      <line class="cls-4" x1="84.46" y1="77.11" x2="84.95" y2="77.25"/>
      <line class="cls-5" x1="85.91" y1="77.52" x2="147.34" y2="94.74"/>
      <line class="cls-4" x1="147.82" y1="94.87" x2="148.3" y2="95.01"/>
    </g>
  </g>
  <g>
    <line class="cls-4" x1="142.84" y1="58.74" x2="176.74" y2="58.74"/>
    <polygon class="cls-polygon" points="176.35 59.32 178.52 58.74 176.35 58.16 176.35 59.32"/>
  </g>
  <g>
    <line class="cls-4" x1="143.02" y1="58.73" x2="143.02" y2="24.01"/>
    <polygon class="cls-polygon" points="143.6 24.41 143.02 22.24 142.43 24.41 143.6 24.41"/>
  </g>
  <text transform="translate(179.95 59.39) scale(1.01 1)"><tspan><tspan class="cls-1 cls-text" x="0" y="0">v</tspan><tspan class="cls-9 cls-text" x="3" y="0">⊥</tspan></tspan></text>
  <text class="cls-1 cls-text" transform="translate(136.38 26.38)"><tspan x="0" y="0">w</tspan></text>
  <g>
    <line x1="142.91" y1="59.03" x2="164.75" y2="29.42"/>
    <g>
      <line class="cls-4" x1="142.91" y1="59.03" x2="163.7" y2="30.84"/>
      <polygon class="cls-polygon" points="163.93 31.51 164.75 29.42 163 30.82 163.93 31.51"/>
    </g>
  </g>
  <text transform="translate(164.69 28.79) scale(1.01 1)"><tspan><tspan class="cls-1 cls-text" x="0" y="0">v’</tspan><tspan class="cls-9 cls-text" x="5" y="0">⊥</tspan></tspan></text>
  <g>
    <path class="cls-4" d="M57.88,73.92c.18.21.35.47.48.75.46.96.49,2.08.02,2.58"/>
    <polygon class="cls-polygon" points="57.84 74.9 58.05 74.12 58.75 73.72 56.91 73.24 57.84 74.9"/>
  </g>
  <text class="cls-1 cls-text" transform="translate(60 75.57)"><tspan x="0" y="0">θ</tspan></text>
  <g>
    <path class="cls-4" d="M147.28,55.37c.18.21.35.47.48.75.46.96.49,2.08.02,2.58"/>
    <polygon class="cls-polygon" points="147.24 56.34 147.45 55.56 148.15 55.17 146.31 54.68 147.24 56.34"/>
  </g>
  <text class="cls-1 cls-text" transform="translate(149.63 57.02)"><tspan x="0" y="0">θ</tspan></text>
  <text class="cls-1 cls-text" transform="translate(139.54 62.87)"><tspan x="0" y="0">u</tspan></text>
</svg>