<?xml version="1.0" encoding="UTF-8"?>
<svg id="_图层_1" data-name="图层 1" xmlns="http://www.w3.org/2000/svg" viewBox="0 0 78.25 80.3">
  <defs>
    <style>
      .cls-1 {
        font-family: TimesNewRomanPSMT, 'Times New Roman';
        font-size: 6px;
      }

      .cls-2 {
        fill: #fff;
      }

      .cls-3 {
        letter-spacing: -.07em;
      }

      .cls-polygon {
        fill: #000;
      }
      .cls-text {
        fill: #000;
      }
      @media (prefers-color-scheme: dark) {
        .cls-polygon {
          fill: #fff;
        }
        .cls-text {
          fill: #fff;
        }
      }

      .cls-4 {
        fill: none;
        stroke-width: .25px;
      }

      .cls-4, .cls-5 {
        stroke: #000;
        stroke-miterlimit: 10;
      }

      @media (prefers-color-scheme: dark) {
        .cls-4, .cls-5 {
          stroke: #fff;
          stroke-miterlimit: 10;
        }
      }

      .cls-5 {
        stroke-width: .5px;
      }
    </style>
  </defs>
  <ellipse class="cls-4" cx="39.12" cy="35.73" rx="39" ry="9.75"/>
  <g>
    <path class="cls-2" d="M38.88,2.67l.48,77.63-.48-77.63Z"/>
    <g>
      <polyline class="cls-4" points="38.88 2.94 39.37 80.29 38.88 2.67"/>
      <polygon class="cls-polygon" points="37.87 3.78 38.05 3.95 38.88 3.04 39.73 3.93 39.91 3.76 38.88 2.67 37.87 3.78"/>
    </g>
  </g>
  <g>
    <line class="cls-4" x1="57.46" y1="28.84" x2="39.12" y2="66.48"/>
    <path class="cls-polygon" d="M58.12,27.48c-.55.52-1.34,1.12-2,1.4l1.26.13.88.91c-.19-.7-.21-1.69-.13-2.44Z"/>
  </g>
  <g>
    <line class="cls-4" x1="39.12" y1="66.48" x2="73.06" y2="32.55"/>
    <path class="cls-polygon" d="M74.12,31.48c-.32.69-.62,1.63-.67,2.35l-.54-1.14-1.14-.54c.72-.05,1.66-.35,2.35-.67Z"/>
  </g>
  <circle class="cls-5" cx="39.27" cy="65.98" r=".25"/>
  <g>
    <path class="cls-4" d="M45.61,55.33c.27.06.56.16.83.3.94.49,1.64,1.36,1.57,2.05"/>
    <polygon class="cls-polygon" points="46.17 56.12 45.86 55.38 46.19 54.64 44.42 55.36 46.17 56.12"/>
  </g>
  <text class="cls-1 cls-text" transform="translate(41.23 4.99)"><tspan x="0" y="0">u</tspan></text>
  <text class="cls-1 cls-text" transform="translate(47.7 54.42)"><tspan x="0" y="0">θ</tspan></text>
  <g>
    <path class="cls-4" d="M40.82,11.48c1.15-.02,2.32-1.77,2.3-2.45-.09-3.51-9.26-3.49-9.2,0,0,.43.29,1.72,1.57,2.23"/>
    <path class="cls-polygon" d="M36.69,11.48c-.6.09-1.36.3-1.87.59l.53-.86-.14-1c.35.46.97.96,1.48,1.28Z"/>
  </g>
  <text class="cls-1 cls-text" transform="translate(56.38 25.74)"><tspan x="0" y="0">v</tspan><tspan class="cls-3 cls-text" x="3" y="0">’</tspan></text>
  <text class="cls-1 cls-text" transform="translate(73.86 30.76) scale(1.01 1)"><tspan x="0" y="0">v</tspan></text>
  <circle class="cls-5" cx="58.22" cy="27.28" r=".1"/>
  <circle class="cls-5" cx="74.12" cy="31.47" r=".1"/>
</svg>