<?xml version="1.0" encoding="UTF-8"?>
<svg id="_图层_5" data-name="图层 5" xmlns="http://www.w3.org/2000/svg" viewBox="12 32 79 78">
  <defs>
    <style>
      .cls-1 {
        font-size: 6px;
      }

      .cls-1, .cls-2 {
        font-family: TimesNewRomanPSMT, 'Times New Roman';
      }

      .cls-polygon {
        fill: #000;
      }
      .cls-text {
        fill: #000;
      }
      @media (prefers-color-scheme: dark) {
        .cls-polygon {
          fill: #fff;
        }
        .cls-text {
          fill: #fff;
        }
      }

      .cls-3 {
        fill: #fff;
      }

      .cls-4 {
        letter-spacing: -.07em;
      }

      .cls-5, .cls-6, .cls-7 {
        stroke: #000;
        stroke-miterlimit: 10;
      }

      @media (prefers-color-scheme: dark) {
        .cls-5, .cls-6, .cls-7 {
          stroke: #fff;
          stroke-miterlimit: 10;
        }
      }

      .cls-5, .cls-7 {
        fill: none;
        stroke-width: .25px;
      }

      .cls-6 {
        stroke-width: .5px;
      }

      .cls-2 {
        font-size: 5px;
      }

      .cls-7 {
        stroke-dasharray: 1 1;
      }
    </style>
  </defs>
  <ellipse class="cls-5" cx="51.52" cy="65.49" rx="39" ry="9.75"/>
  <g>
    <path class="cls-3" d="M51.27,32.43l.48,77.63-.48-77.63Z"/>
    <g>
      <polyline class="cls-5" points="51.27 32.7 51.76 110.05 51.27 32.43"/>
      <polygon class="cls-polygon" points="50.26 33.54 50.44 33.7 51.28 32.8 52.12 33.69 52.3 33.52 51.27 32.43 50.26 33.54"/>
    </g>
  </g>
  <g>
    <line class="cls-5" x1="69.55" y1="59.23" x2="51.52" y2="96.24"/>
    <polygon class="cls-polygon" points="68.68 59.36 70.52 57.24 69.98 60 68.68 59.36"/>
  </g>
  <g>
    <line class="cls-5" x1="51.52" y1="95.99" x2="88.77" y2="66.86"/>
    <polygon class="cls-polygon" points="88.83 67.73 90.52 65.49 87.93 66.59 88.83 67.73"/>
  </g>
  <circle class="cls-6" cx="51.67" cy="95.74" r=".25"/>
  <g>
    <path class="cls-5" d="M58.96,63.12c.08.12.15.25.21.39.3.73.16,1.6-.38,1.99"/>
    <polygon class="cls-polygon" points="58.89 64.11 59.11 63.33 59.82 62.95 57.98 62.43 58.89 64.11"/>
  </g>
  <text class="cls-1 cls-text" transform="translate(53.62 34.75)"><tspan x="0" y="0">u</tspan></text>
  <text class="cls-2 cls-text" transform="translate(61.08 64.82)"><tspan x="0" y="0">θ</tspan></text>
  <g>
    <path class="cls-5" d="M53.22,41.24c1.15-.02,2.32-1.77,2.3-2.45-.09-3.51-9.26-3.49-9.2,0,0,.43.29,1.72,1.57,2.23"/>
    <path class="cls-polygon" d="M49.08,41.24c-.6.09-1.36.3-1.87.59l.53-.86-.14-1c.35.46.97.96,1.48,1.28Z"/>
  </g>
  <text class="cls-1 cls-text" transform="translate(68.77 55.5)"><tspan x="0" y="0">v</tspan><tspan class="cls-4 cls-text" x="3" y="0">’</tspan></text>
  <text class="cls-1 cls-text" transform="translate(91.25 63.52) scale(1.01 1)"><tspan x="0" y="0">v</tspan></text>
  <circle class="cls-6" cx="70.62" cy="57.04" r=".1"/>
  <circle class="cls-6" cx="90.52" cy="65.49" r=".1"/>
  <circle class="cls-6" cx="51.52" cy="65.49" r=".25"/>
  <line class="cls-7" x1="51.52" y1="65.37" x2="70.52" y2="57.12"/>
  <line class="cls-7" x1="51.52" y1="65.49" x2="90.52" y2="65.49"/>
</svg>