<?xml version="1.0" encoding="UTF-8"?>
<svg id="rot-2" xmlns="http://www.w3.org/2000/svg" viewBox="0 2 90 65">
  <defs>
    <style>
      .cls-1 {
        fill: #fff;
      }

      .cls-2 {
        font-size: 3px;
      }

      .cls-polygon {
        fill: #000;
      }
      .cls-text {
        fill: #000;
      }
      @media (prefers-color-scheme: dark) {
        .cls-polygon {
          fill: #fff;
        }
        .cls-text {
          fill: #fff;
        }
      }

      .cls-3, .cls-4, .cls-5 {
        stroke: #000;
        stroke-miterlimit: 10;
      }

      @media (prefers-color-scheme: dark) {
        .cls-3, .cls-4, .cls-5 {
          stroke: #fff;
          stroke-miterlimit: 10;
        }
      }

      .cls-3, .cls-5 {
        fill: none;
        stroke-width: .25px;
      }

      .cls-4 {
        stroke-width: .5px;
      }

      .cls-6 {
        font-size: 5px;
      }

      .cls-6, .cls-7 {
        font-family: TimesNewRomanPSMT, 'Times New Roman';
      }

      .cls-8 {
        font-size: 6px;
      }

      .cls-5 {
        stroke-dasharray: 1 1;
      }
    </style>
  </defs>
  <ellipse class="cls-3" cx="44.88" cy="36.48" rx="39" ry="16.25"/>
  <g>
    <path class="cls-1" d="M44.63,2.67l.48,77.63-.48-77.63Z"/>
    <g>
      <polyline class="cls-3" points="44.64 2.94 45.12 80.29 44.63 2.67"/>
      <polygon class="cls-polygon" points="43.62 3.78 43.8 3.95 44.64 3.04 45.48 3.93 45.66 3.76 44.63 2.67 43.62 3.78"/>
    </g>
  </g>
  <g>
    <line class="cls-3" x1="44.88" y1="66.48" x2="82.12" y2="37.83"/>
    <polygon class="cls-polygon" points="82.17 38.71 83.88 36.48 81.28 37.56 82.17 38.71"/>
  </g>
  <circle class="cls-4" cx="45.03" cy="66.28" r=".25"/>
  <g>
    <path class="cls-3" d="M40.33,31.74c1.38-.34,3.1-.27,4.71.22,2.71.82,4.72,2.74,4.49,4.49"/>
    <polygon class="cls-polygon" points="41.1 32.28 40.57 31.68 40.63 30.88 39.2 32.14 41.1 32.28"/>
  </g>
  <text class="cls-7 cls-text" transform="translate(46.99 4.99)"><tspan class="cls-8" x="0" y="0">u</tspan><tspan class="cls-2" x="3" y="0">t</tspan></text>
  <text class="cls-6 cls-text" transform="translate(48.44 31.06)"><tspan x="0" y="0">2θ</tspan></text>
  <g>
    <path class="cls-3" d="M46.58,11.48c1.15-.02,2.32-1.77,2.3-2.45-.09-3.51-9.26-3.49-9.2,0,0,.43.29,1.72,1.57,2.23"/>
    <path class="cls-polygon" d="M42.44,11.48c-.6.09-1.36.3-1.87.59l.53-.86-.14-1c.35.46.97.96,1.48,1.28Z"/>
  </g>
  <text class="cls-7" transform="translate(84.61 35.76) scale(1.01 1)"><tspan class="cls-8" x="0" y="0">v</tspan><tspan class="cls-2" x="3" y="0">0</tspan></text>
  <circle class="cls-4" cx="83.88" cy="36.48" r=".1"/>
  <circle class="cls-4" cx="44.88" cy="36.48" r=".25"/>
  <line class="cls-5" x1="24.88" y1="22.48" x2="44.88" y2="36.36"/>
  <line class="cls-5" x1="44.88" y1="36.48" x2="83.88" y2="36.48"/>
  <text class="cls-7 cls-text" transform="translate(21.4 20.86) scale(1.01 1)"><tspan class="cls-8" x="0" y="0">v</tspan><tspan class="cls-2" x="3" y="0">1</tspan></text>
  <circle class="cls-4" cx="24.98" cy="22.48" r=".1"/>
  <g>
    <line class="cls-3" x1="44.88" y1="66.48" x2="25.79" y2="24.5"/>
    <polygon class="cls-polygon" points="26.66 24.65 24.88 22.48 25.34 25.25 26.66 24.65"/>
  </g>
</svg>